# xmcd
#
# Track frame offsets:
#	182
#	12975
#	25735
#	38425
#	50445
#	60250
#	71342
#	80852
#	97722
#	107987
#
# Disc length: 1675 seconds
#
# Revision: 1
# Processed by: cddbd v1.4PL0 Copyright (c) Steve Scherf et al.
# Submitted via: audiograbber 1.81.00
#
DISCID=6f06890a
DTITLE=Eddy Arnold - The Legendary Eddy Arnold
DYEAR=1900
DGENRE=Country
TTITLE0=By The Time I Get To Phoenix
TTITLE1=Turn Around Look At Me
TTITLE2=Then You Can Tell Me Goodbye
TTITLE3=Witchita Lineman
TTITLE4=What's He Doing In My World
TTITLE5=Somebody Like Me
TTITLE6=Misty Blue
TTITLE7=Little Green Apples
TTITLE8=Gentle On My Mind
TTITLE9=You Gave Me A Mountain
EXTD=
EXTT0=
EXTT1=
EXTT2=
EXTT3=
EXTT4=
EXTT5=
EXTT6=
EXTT7=
EXTT8=
EXTT9=
PLAYORDER=
